<svg xmlns="http://www.w3.org/2000/svg" width="1008" height="160" viewBox="0 0 1008 160">
<defs><filter id="s" x="-5%" y="-10%" width="110%" height="130%"><feDropShadow dx="0" dy="4" stdDeviation="2.5" flood-color="#000" flood-opacity=".3"/></filter></defs>
<g filter="url(#s)" fill="none" stroke-linecap="round" stroke-linejoin="round">
<g stroke="#5b1844" stroke-width="22"><g transform="translate(14 20) rotate(-6 35.0 60) scale(1.08)"><path d="M64,16 C54,-4 14,-2 12,26 C10,52 62,48 62,74 C62,100 18,100 4,80"/></g><g transform="translate(97.60000000000001 26) rotate(3 25.0 60) scale(1.08)"><path d="M26,10 V70 Q26,92 48,86"/><path d="M6,38 H50"/></g><g transform="translate(159.60000000000002 30) rotate(-2 18.0 60) scale(1.08)"><path d="M22,38 V88 Q22,112 0,108"/><path d="M22,10 L22,14"/></g><g transform="translate(206.48000000000002 24) rotate(4 30.0 60) scale(1.08)"><path d="M8,62 H56 Q56,38 32,38 Q8,38 8,63 Q8,88 34,88 Q48,88 56,78"/></g><g transform="translate(279.28000000000003 28) rotate(-3 23.0 60) scale(1.08)"><path d="M10,38 V90"/><path d="M10,58 Q18,38 42,40"/></g><g transform="translate(336.96000000000004 23) rotate(2 30.0 60) scale(1.08)"><path d="M10,38 V90"/><path d="M10,58 Q18,38 36,38 Q56,38 56,60 V90"/></g><g transform="translate(409.76000000000005 29) rotate(-4 30.0 60) scale(1.08)"><path d="M8,62 H56 Q56,38 32,38 Q8,38 8,63 Q8,88 34,88 Q48,88 56,78"/></g><g transform="translate(482.56000000000006 22) rotate(3 30.0 60) scale(1.08)"><path d="M10,4 V90"/><path d="M10,58 Q18,38 36,38 Q56,38 56,60 V90"/></g><g transform="translate(555.3600000000001 28) rotate(-2 29.0 60) scale(1.08)"><path d="M30,38 C8,38 4,60 8,74 C12,92 48,92 52,74 C56,58 50,38 30,38 Z"/></g><g transform="translate(626.0000000000001 24) rotate(4 25.0 60) scale(1.08)"><path d="M26,10 V70 Q26,92 48,86"/><path d="M6,38 H50"/></g><g transform="translate(688.0000000000001 29) rotate(-3 30.0 60) scale(1.08)"><path d="M8,62 H56 Q56,38 32,38 Q8,38 8,63 Q8,88 34,88 Q48,88 56,78"/></g><g transform="translate(760.8000000000002 25) rotate(2 20.0 60) scale(1.08)"><path d="M24,4 V80 Q24,96 42,92"/></g><g transform="translate(812.0000000000002 28) rotate(-3 20.0 60) scale(1.08)"><path d="M24,4 V80 Q24,96 42,92"/></g><g transform="translate(863.2000000000003 23) rotate(3 30.0 60) scale(1.08)"><path d="M8,62 H56 Q56,38 32,38 Q8,38 8,63 Q8,88 34,88 Q48,88 56,78"/></g><g transform="translate(936.0000000000002 27) rotate(-4 25.0 60) scale(1.08)"><path d="M26,10 V70 Q26,92 48,86"/><path d="M6,38 H50"/></g></g>
<g stroke="#ff93cf" stroke-width="12"><g transform="translate(14 20) rotate(-6 35.0 60) scale(1.08)"><path d="M64,16 C54,-4 14,-2 12,26 C10,52 62,48 62,74 C62,100 18,100 4,80"/></g><g transform="translate(97.60000000000001 26) rotate(3 25.0 60) scale(1.08)"><path d="M26,10 V70 Q26,92 48,86"/><path d="M6,38 H50"/></g><g transform="translate(159.60000000000002 30) rotate(-2 18.0 60) scale(1.08)"><path d="M22,38 V88 Q22,112 0,108"/><path d="M22,10 L22,14"/></g><g transform="translate(206.48000000000002 24) rotate(4 30.0 60) scale(1.08)"><path d="M8,62 H56 Q56,38 32,38 Q8,38 8,63 Q8,88 34,88 Q48,88 56,78"/></g><g transform="translate(279.28000000000003 28) rotate(-3 23.0 60) scale(1.08)"><path d="M10,38 V90"/><path d="M10,58 Q18,38 42,40"/></g><g transform="translate(336.96000000000004 23) rotate(2 30.0 60) scale(1.08)"><path d="M10,38 V90"/><path d="M10,58 Q18,38 36,38 Q56,38 56,60 V90"/></g><g transform="translate(409.76000000000005 29) rotate(-4 30.0 60) scale(1.08)"><path d="M8,62 H56 Q56,38 32,38 Q8,38 8,63 Q8,88 34,88 Q48,88 56,78"/></g><g transform="translate(482.56000000000006 22) rotate(3 30.0 60) scale(1.08)"><path d="M10,4 V90"/><path d="M10,58 Q18,38 36,38 Q56,38 56,60 V90"/></g><g transform="translate(555.3600000000001 28) rotate(-2 29.0 60) scale(1.08)"><path d="M30,38 C8,38 4,60 8,74 C12,92 48,92 52,74 C56,58 50,38 30,38 Z"/></g><g transform="translate(626.0000000000001 24) rotate(4 25.0 60) scale(1.08)"><path d="M26,10 V70 Q26,92 48,86"/><path d="M6,38 H50"/></g><g transform="translate(688.0000000000001 29) rotate(-3 30.0 60) scale(1.08)"><path d="M8,62 H56 Q56,38 32,38 Q8,38 8,63 Q8,88 34,88 Q48,88 56,78"/></g><g transform="translate(760.8000000000002 25) rotate(2 20.0 60) scale(1.08)"><path d="M24,4 V80 Q24,96 42,92"/></g><g transform="translate(812.0000000000002 28) rotate(-3 20.0 60) scale(1.08)"><path d="M24,4 V80 Q24,96 42,92"/></g><g transform="translate(863.2000000000003 23) rotate(3 30.0 60) scale(1.08)"><path d="M8,62 H56 Q56,38 32,38 Q8,38 8,63 Q8,88 34,88 Q48,88 56,78"/></g><g transform="translate(936.0000000000002 27) rotate(-4 25.0 60) scale(1.08)"><path d="M26,10 V70 Q26,92 48,86"/><path d="M6,38 H50"/></g></g>
<g stroke="#ffd0ea" stroke-width="3" transform="translate(-2 -2)" opacity=".8"><g transform="translate(14 20) rotate(-6 35.0 60) scale(1.08)"><path d="M64,16 C54,-4 14,-2 12,26 C10,52 62,48 62,74 C62,100 18,100 4,80"/></g><g transform="translate(97.60000000000001 26) rotate(3 25.0 60) scale(1.08)"><path d="M26,10 V70 Q26,92 48,86"/><path d="M6,38 H50"/></g><g transform="translate(159.60000000000002 30) rotate(-2 18.0 60) scale(1.08)"><path d="M22,38 V88 Q22,112 0,108"/><path d="M22,10 L22,14"/></g><g transform="translate(206.48000000000002 24) rotate(4 30.0 60) scale(1.08)"><path d="M8,62 H56 Q56,38 32,38 Q8,38 8,63 Q8,88 34,88 Q48,88 56,78"/></g><g transform="translate(279.28000000000003 28) rotate(-3 23.0 60) scale(1.08)"><path d="M10,38 V90"/><path d="M10,58 Q18,38 42,40"/></g><g transform="translate(336.96000000000004 23) rotate(2 30.0 60) scale(1.08)"><path d="M10,38 V90"/><path d="M10,58 Q18,38 36,38 Q56,38 56,60 V90"/></g><g transform="translate(409.76000000000005 29) rotate(-4 30.0 60) scale(1.08)"><path d="M8,62 H56 Q56,38 32,38 Q8,38 8,63 Q8,88 34,88 Q48,88 56,78"/></g><g transform="translate(482.56000000000006 22) rotate(3 30.0 60) scale(1.08)"><path d="M10,4 V90"/><path d="M10,58 Q18,38 36,38 Q56,38 56,60 V90"/></g><g transform="translate(555.3600000000001 28) rotate(-2 29.0 60) scale(1.08)"><path d="M30,38 C8,38 4,60 8,74 C12,92 48,92 52,74 C56,58 50,38 30,38 Z"/></g><g transform="translate(626.0000000000001 24) rotate(4 25.0 60) scale(1.08)"><path d="M26,10 V70 Q26,92 48,86"/><path d="M6,38 H50"/></g><g transform="translate(688.0000000000001 29) rotate(-3 30.0 60) scale(1.08)"><path d="M8,62 H56 Q56,38 32,38 Q8,38 8,63 Q8,88 34,88 Q48,88 56,78"/></g><g transform="translate(760.8000000000002 25) rotate(2 20.0 60) scale(1.08)"><path d="M24,4 V80 Q24,96 42,92"/></g><g transform="translate(812.0000000000002 28) rotate(-3 20.0 60) scale(1.08)"><path d="M24,4 V80 Q24,96 42,92"/></g><g transform="translate(863.2000000000003 23) rotate(3 30.0 60) scale(1.08)"><path d="M8,62 H56 Q56,38 32,38 Q8,38 8,63 Q8,88 34,88 Q48,88 56,78"/></g><g transform="translate(936.0000000000002 27) rotate(-4 25.0 60) scale(1.08)"><path d="M26,10 V70 Q26,92 48,86"/><path d="M6,38 H50"/></g></g>
</g></svg>